<?xml version="1.0" encoding="utf-8"?>
<!-- Generator: Adobe Illustrator 16.0.0, SVG Export Plug-In . SVG Version: 6.00 Build 0)  -->
<!DOCTYPE svg PUBLIC "-//W3C//DTD SVG 1.1//EN" "http://www.w3.org/Graphics/SVG/1.1/DTD/svg11.dtd" [
	<!ENTITY st0 "fill:#ACDCFF;">
	<!ENTITY st1 "fill:#AD95F8;">
	<!ENTITY st2 "fill:#7EF2FF;">
	<!ENTITY st3 "fill:#AEE7FF;">
	<!ENTITY st4 "fill:#E0C1FF;">
	<!ENTITY st5 "fill:#146CE0;">
	<!ENTITY st6 "fill:#1768DF;">
	<!ENTITY st7 "fill:#4DCFF8;">
	<!ENTITY st8 "fill:#E984FC;">
	<!ENTITY st9 "fill:#E9BAFF;">
	<!ENTITY st10 "fill:#808EFF;">
	<!ENTITY st11 "fill:#B0A7FF;">
	<!ENTITY st12 "fill:#B16DF5;">
	<!ENTITY st13 "fill:#B17BFC;">
	<!ENTITY st14 "fill:#B17FFB;">
	<!ENTITY st15 "fill:#B180FC;">
	<!ENTITY st16 "fill:#B1CBFC;">
	<!ENTITY st17 "fill:#83D0FD;">
	<!ENTITY st18 "fill:#B3A4FF;">
	<!ENTITY st19 "fill:#84D1FE;">
	<!ENTITY st20 "fill:#857CFD;">
	<!ENTITY st21 "fill:#1A7BE2;">
	<!ENTITY st22 "fill:#86DDFE;">
	<!ENTITY st23 "fill:#EBDFFF;">
	<!ENTITY st24 "fill:#ECABFF;">
	<!ENTITY st25 "fill:#ECB8FF;">
	<!ENTITY st26 "fill:#B9B3FE;">
	<!ENTITY st27 "fill:#50C5F7;">
	<!ENTITY st28 "fill:#EFCFFF;">
	<!ENTITY st29 "fill:#54BCE8;">
	<!ENTITY st30 "fill:#8AC7FE;">
	<!ENTITY st31 "fill:#8AC8FE;">
	<!ENTITY st32 "fill:#BBA2FF;">
	<!ENTITY st33 "fill:#BCA1FE;">
	<!ENTITY st34 "fill:#BCA2FF;">
	<!ENTITY st35 "fill:#BDA1FE;">
	<!ENTITY st36 "fill:#BE78FB;">
	<!ENTITY st37 "fill:#BECBFF;">
	<!ENTITY st38 "fill:#5AB9FA;">
	<!ENTITY st39 "fill:#5ABAFA;">
	<!ENTITY st40 "fill:#5EA1F4;">
	<!ENTITY st41 "fill:#909BFC;">
	<!ENTITY st42 "fill:#90BCFF;">
	<!ENTITY st43 "fill:#C0DCFF;">
	<!ENTITY st44 "fill:#9387FF;">
	<!ENTITY st45 "fill:#C2AEFE;">
	<!ENTITY st46 "fill:#C367ED;">
	<!ENTITY st47 "fill:#C3D3FF;">
	<!ENTITY st48 "fill:#94AEFF;">
	<!ENTITY st49 "fill:#9587FE;">
	<!ENTITY st50 "fill:#95AEFF;">
	<!ENTITY st51 "fill:#C59FFE;">
	<!ENTITY st52 "fill:#C6E6FF;">
	<!ENTITY st53 "fill:#C7C9FF;">
	<!ENTITY st54 "fill:#98CEFD;">
	<!ENTITY st55 "fill:#C8BFFF;">
	<!ENTITY st56 "fill:#99DBFE;">
	<!ENTITY st57 "fill:#C96FFB;">
	<!ENTITY st58 "fill:#61A8FD;">
	<!ENTITY st59 "fill:#64E8FD;">
	<!ENTITY st60 "fill:#9AC5FE;">
	<!ENTITY st61 "fill:#CABEFF;">
	<!ENTITY st62 "fill:#68DAFD;">
	<!ENTITY st63 "fill:#9CC4FE;">
	<!ENTITY st64 "fill:#9CDEFF;">
	<!ENTITY st65 "fill:#6985FF;">
	<!ENTITY st66 "fill:#CCAAFE;">
	<!ENTITY st67 "fill:#CCABFE;">
	<!ENTITY st68 "fill:#6FD2FD;">
	<!ENTITY st69 "fill:#6FD4FE;">
	<!ENTITY st70 "fill-rule:evenodd;clip-rule:evenodd;fill:#FFFFFF;">
	<!ENTITY st71 "fill:#D16CF9;">
	<!ENTITY st72 "fill:#D1D7FE;">
	<!ENTITY st73 "fill:#D2A8FD;">
	<!ENTITY st74 "fill:#D496FE;">
	<!ENTITY st75 "fill:#D497FD;">
	<!ENTITY st76 "fill:#D597FE;">
	<!ENTITY st77 "fill:#D9A5FC;">
	<!ENTITY st78 "fill:#A071FB;">
	<!ENTITY st79 "fill:#A1B7FE;">
	<!ENTITY st80 "fill:#A1B8FF;">
	<!ENTITY st81 "fill:#72B5FA;">
	<!ENTITY st82 "fill:#73B4FA;">
	<!ENTITY st83 "fill:#A383FD;">
	<!ENTITY st84 "fill:#A483FD;">
	<!ENTITY st85 "fill:#DBD0FF;">
	<!ENTITY st86 "fill:#79A1FD;">
	<!ENTITY st87 "fill:#A9C2FD;">
	<!ENTITY st88 "fill:#0F6CD8;">
	<!ENTITY st89 "fill:#44D8F7;">
]>
<svg version="1.1" id="Layer_1" xmlns="http://www.w3.org/2000/svg" xmlns:xlink="http://www.w3.org/1999/xlink" x="0px" y="0px"
	 width="1200px" height="150px" viewBox="0 0 1200 150" style="enable-background:new 0 0 1200 150;" xml:space="preserve">
<rect style="&st80;" width="1200" height="148"/>
<g id="HeaderBackground">
</g>
<polygon style="&st6;" points="132.787,87.915 131.791,82.787 130.904,78.214 126.608,56.084 118.698,57.62 40.889,72.723 0,80.66 
	0,150 102.667,150 144.837,150 "/>
<path style="&st40;" d="M133.185,82.063l-1.394,0.723l0.996,5.128l1.74-3.587L133.185,82.063 M22.836,37.919L6.024,49.866L0,41.388
	V80.66l40.889-7.937L22.836,37.919"/>
<polyline style="&st65;" points="297.223,0 153.663,0 170.309,32.092 267.78,79.377 302.134,25.585 315.582,34.173 321.429,24.736 
	317.024,27.866 297.223,0 "/>
<polyline style="&st58;" points="136.445,80.373 133.185,82.063 134.527,84.327 136.445,80.373 "/>
<polyline style="&st86;" points="134.527,84.327 132.787,87.915 144.837,150 173.449,150 134.527,84.327 "/>
<polyline style="&st10;" points="170.309,32.092 182.863,56.295 166.423,64.823 198.83,150 230.956,150 212.931,110.903 
	262.131,88.221 267.78,79.377 170.309,32.092 "/>
<polyline style="&st42;" points="166.423,64.823 136.445,80.373 134.527,84.327 173.449,150 198.83,150 166.423,64.823 "/>
<polyline style="&st78;" points="106.116,0 76.198,0 41.723,24.499 106.116,0 "/>
<path style="&st41;" d="M130.904,78.214l0.887,4.573l1.394-0.723L130.904,78.214 M117.729,0h-11.614L41.723,24.499L22.836,37.919
	l18.053,34.803l77.809-15.103L93.174,14.553L117.729,0"/>
<polyline style="&st49;" points="153.663,0 141.761,0 156.562,38.905 161.856,27.992 170.309,32.092 153.663,0 "/>
<polyline style="&st80;" points="141.761,0 117.729,0 93.174,14.553 118.698,57.62 126.608,56.084 130.904,78.214 133.185,82.063 
	136.445,80.373 156.562,38.905 141.761,0 "/>
<polyline style="&st18;" points="161.856,27.992 156.562,38.905 166.423,64.823 182.863,56.295 170.309,32.092 161.856,27.992 "/>
<polyline style="&st37;" points="156.562,38.905 136.445,80.373 166.423,64.823 156.562,38.905 "/>
<polyline style="&st83;" points="302.134,25.585 267.78,79.377 274.375,82.577 290.076,75.338 315.582,34.173 302.134,25.585 "/>
<polyline style="&st35;" points="267.78,79.377 262.131,88.221 274.375,82.577 267.78,79.377 "/>
<polyline style="&st46;" points="595.325,56.055 589.098,56.102 590.652,61.936 595.325,56.055 "/>
<polyline style="&st29;" points="981.485,0 844.321,0 832.237,24.911 851.326,36.739 955.398,8.997 967.283,53.58 1004.784,39.312 
	981.485,0 "/>
<polyline style="&st40;" points="833.847,145.522 831.747,148.912 832.248,150 834.245,150 833.847,145.522 "/>
<polyline style="&st27;" points="955.398,8.997 851.326,36.739 887.4,59.091 833.847,145.522 834.245,150 836.152,150 
	905.07,122.835 915.777,150 940,150 957.706,150 946.344,91.463 971.026,86.672 959.555,56.521 967.283,53.58 955.398,8.997 "/>
<polyline style="&st65;" points="698.691,140.131 690.85,150 714.62,150 698.691,140.131 "/>
<polyline style="&st58;" points="831.747,148.912 831.072,150 832.248,150 831.747,148.912 "/>
<path style="&st20;" d="M741.817,54.959l-38.39,0.287l13.867,11.018L741.817,54.959 M773.409,0h-23.703l0.383,51.145l30.173-13.91
	l7.573,16.429l36.968-9.854l-1.754-19.728L773.409,0"/>
<polyline style="&st81;" points="823.049,24.082 824.803,43.809 851.326,36.739 832.237,24.911 830.812,27.848 823.049,24.082 "/>
<polyline style="&st86;" points="824.803,43.809 787.835,53.664 831.747,148.912 833.847,145.522 824.803,43.809 "/>
<polyline style="&st17;" points="851.326,36.739 824.803,43.809 833.847,145.522 887.4,59.091 851.326,36.739 "/>
<polyline style="&st10;" points="780.262,37.235 750.089,51.145 750.117,54.896 741.817,54.959 717.295,66.264 741.868,85.787 
	698.691,140.131 714.62,150 794.006,150 769.619,58.52 787.835,53.664 780.262,37.235 "/>
<polyline style="&st42;" points="787.835,53.664 769.619,58.52 794.006,150 831.072,150 831.747,148.912 787.835,53.664 "/>
<polyline style="&st54;" points="905.07,122.835 836.152,150 915.777,150 905.07,122.835 "/>
<path style="&st40;" d="M462.921,115.88l-13.171,21.258l0.846,1.835l2.15-0.19l22.502-8.87L462.921,115.88 M541.532,25.765
	l-62.012,5.514l25.883,16.037l-13.858,22.366L541.532,25.765"/>
<polyline style="&st1;" points="545.81,25.385 541.532,25.765 491.545,69.683 462.921,115.88 475.249,129.912 523.074,111.061 
	534.802,140.812 567.607,117.501 554.671,107.223 590.652,61.936 589.098,56.102 546.042,56.424 545.81,25.385 "/>
<polyline style="&st27;" points="452.747,138.782 450.596,138.973 450.853,139.528 452.747,138.782 "/>
<polyline style="&st50;" points="262.131,88.221 212.931,110.903 230.956,150 249.41,150 230.421,137.873 262.131,88.221 "/>
<polyline style="&st84;" points="309.233,123.733 299.71,129.377 289.706,150 342.906,150 342.778,148.561 348.485,148.054 
	309.233,123.733 "/>
<path style="&st11;" d="M304.017,120.501l-4.306,8.876l9.523-5.644L304.017,120.501 M290.076,75.338l-15.701,7.238l8.624,4.184
	L290.076,75.338"/>
<polyline style="&st33;" points="299.71,129.377 264.914,150 289.706,150 299.71,129.377 "/>
<polyline style="&st61;" points="274.375,82.577 262.131,88.221 230.421,137.873 249.41,150 264.914,150 299.71,129.377 
	304.017,120.501 273.723,101.731 282.999,86.76 274.375,82.577 "/>
<polyline style="&st87;" points="348.485,148.054 342.778,148.561 342.906,150 351.627,150 348.485,148.054 "/>
<polyline style="&st58;" points="449.75,137.138 448.498,139.159 450.596,138.973 449.75,137.138 "/>
<polyline style="&st68;" points="450.596,138.973 448.498,139.159 447.434,140.876 450.853,139.528 450.596,138.973 "/>
<path style="&st20;" d="M428.684,35.8l-24.643,2.191l1.797,3.898L428.684,35.8 M391.267,0h-35.028l-24.248,17.23l18.054,30.461
	l43.672-20.134L391.267,0"/>
<polyline style="&st10;" points="331.991,17.23 321.429,24.736 315.582,34.173 342.323,51.251 350.045,47.691 331.991,17.23 "/>
<polyline style="&st32;" points="315.582,34.173 290.076,75.338 342.323,51.251 315.582,34.173 "/>
<polyline style="&st86;" points="479.521,31.279 428.684,35.8 405.839,41.89 449.75,137.138 462.921,115.88 452.484,104 
	491.545,69.683 505.403,47.316 479.521,31.279 "/>
<polyline style="&st45;" points="491.545,69.683 452.484,104 462.921,115.88 491.545,69.683 "/>
<path style="&st10;" d="M405.022,112.014l-20.999,32.879l29.074-2.585L405.022,112.014 M393.717,27.558l-43.672,20.134l8.098,13.664
	l40.223,25.688l-10.743-40.298l18.216-4.856l-1.797-3.898l-9.323,0.829L393.717,27.558"/>
<polyline style="&st48;" points="350.045,47.691 342.323,51.251 358.143,61.355 350.045,47.691 "/>
<polyline style="&st34;" points="358.143,61.355 372.788,86.066 309.233,123.733 348.485,148.054 384.024,144.893 405.022,112.014 
	398.366,87.043 358.143,61.355 "/>
<polyline style="&st55;" points="342.323,51.251 290.076,75.338 282.999,86.76 313.262,101.442 304.017,120.501 309.233,123.733 
	372.788,86.066 358.143,61.355 342.323,51.251 "/>
<polyline style="&st85;" points="282.999,86.76 273.723,101.731 304.017,120.501 313.262,101.442 282.999,86.76 "/>
<polyline style="&st31;" points="413.098,142.308 384.024,144.893 380.762,150 415.149,150 413.098,142.308 "/>
<polyline style="&st47;" points="384.024,144.893 348.485,148.054 351.627,150 380.762,150 384.024,144.893 "/>
<polyline style="&st42;" points="405.839,41.89 387.623,46.746 398.366,87.043 414.421,97.297 405.022,112.014 413.098,142.308 
	448.498,139.159 449.75,137.138 405.839,41.89 "/>
<polyline style="&st53;" points="398.366,87.043 405.022,112.014 414.421,97.297 398.366,87.043 "/>
<polyline style="&st64;" points="448.498,139.159 413.098,142.308 415.149,150 424.287,150 447.434,140.876 448.498,139.159 "/>
<polyline style="&st41;" points="475.249,129.912 452.747,138.782 480.846,136.283 475.249,129.912 "/>
<polyline style="&st66;" points="523.074,111.061 475.249,129.912 480.846,136.283 527.713,132.115 528.861,145.033 
	534.802,140.812 523.074,111.061 "/>
<polyline style="&st54;" points="480.846,136.283 452.747,138.782 450.853,139.528 455.68,150 492.896,150 480.846,136.283 "/>
<polyline style="&st72;" points="527.713,132.115 480.846,136.283 492.896,150 521.872,150 528.861,145.033 527.713,132.115 "/>
<polyline style="&st0;" points="450.853,139.528 447.434,140.876 441.781,150 455.68,150 450.853,139.528 "/>
<polyline style="&st52;" points="447.434,140.876 424.287,150 441.781,150 447.434,140.876 "/>
<polyline style="&st12;" points="691.763,55.333 603.026,55.998 642.387,100.798 672.072,87.112 691.763,55.333 "/>
<polyline style="&st71;" points="603.026,55.998 595.325,56.055 590.652,61.936 599.436,94.884 616.18,82.986 632.181,105.504 
	642.387,100.798 603.026,55.998 "/>
<polyline style="&st83;" points="672.072,87.112 642.387,100.798 656.804,117.209 646.766,126.028 663.799,150 690.85,150 
	698.691,140.131 655.72,113.505 672.072,87.112 "/>
<polyline style="&st75;" points="642.387,100.798 632.181,105.504 646.766,126.028 656.804,117.209 642.387,100.798 "/>
<polyline style="&st13;" points="703.428,55.246 691.763,55.333 672.072,87.112 717.295,66.264 703.428,55.246 "/>
<polyline style="&st35;" points="717.295,66.264 672.072,87.112 655.72,113.505 698.691,140.131 741.868,85.787 717.295,66.264 "/>
<polyline style="&st73;" points="590.652,61.936 554.671,107.223 567.607,117.501 599.436,94.884 590.652,61.936 "/>
<polyline style="&st77;" points="567.607,117.501 534.802,140.812 538.423,150 607.523,150 606.952,148.761 567.607,117.501 "/>
<polyline style="&st4;" points="606.952,148.761 607.523,150 608.512,150 606.952,148.761 "/>
<polyline style="&st9;" points="534.802,140.812 528.861,145.033 529.304,150 538.423,150 534.802,140.812 "/>
<polyline style="&st23;" points="528.861,145.033 521.872,150 529.304,150 528.861,145.033 "/>
<polyline style="&st8;" points="616.18,82.986 599.436,94.884 605.54,117.785 632.181,105.504 616.18,82.986 "/>
<polyline style="&st74;" points="646.766,126.028 619.48,150 663.799,150 646.766,126.028 "/>
<polyline style="&st24;" points="632.181,105.504 605.54,117.785 614.127,150 619.48,150 646.766,126.028 632.181,105.504 "/>
<polyline style="&st25;" points="599.436,94.884 567.607,117.501 606.952,148.761 594.928,122.678 605.54,117.785 599.436,94.884 
	"/>
<polyline style="&st28;" points="605.54,117.785 594.928,122.678 606.952,148.761 608.512,150 614.127,150 605.54,117.785 "/>
<polyline style="&st88;" points="40.889,72.723 0,80.66 0,150 102.667,150 132.787,87.915 131.791,82.787 64.275,117.808 
	40.889,72.723 "/>
<polyline style="&st5;" points="132.787,87.915 102.667,150 144.837,150 132.787,87.915 "/>
<polyline style="&st6;" points="118.698,57.62 40.889,72.723 64.275,117.808 131.791,82.787 130.904,78.214 118.698,57.62 "/>
<polyline style="&st21;" points="126.608,56.084 118.698,57.62 130.904,78.214 126.608,56.084 "/>
<polyline style="&st40;" points="1023.786,35.894 1011.162,43.376 1014.266,78.279 1042.89,72.723 1023.786,35.894 "/>
<polyline style="&st27;" points="1004.784,39.312 967.283,53.58 975.854,85.734 1014.266,78.279 1011.162,43.376 1008.225,45.117 
	1004.784,39.312 "/>
<polyline style="&st62;" points="967.283,53.58 959.555,56.521 971.026,86.672 975.854,85.734 967.283,53.58 "/>
<polyline style="&st40;" points="1135.186,82.063 1133.791,82.787 1134.787,87.914 1136.526,84.327 1135.186,82.063 "/>
<polyline style="&st65;" points="1200,0 1155.662,0 1172.309,32.092 1200,45.525 1200,0 "/>
<polyline style="&st58;" points="1138.445,80.373 1135.186,82.063 1136.526,84.327 1138.445,80.373 "/>
<polyline style="&st86;" points="1136.526,84.327 1134.787,87.914 1146.838,150 1175.449,150 1136.526,84.327 "/>
<polyline style="&st10;" points="1172.309,32.092 1184.863,56.295 1168.424,64.823 1200,147.818 1200,45.525 1172.309,32.092 "/>
<polyline style="&st42;" points="1168.424,64.823 1138.445,80.373 1136.526,84.327 1175.449,150 1200,150 1200,147.818 
	1168.424,64.823 "/>
<polyline style="&st78;" points="1108.116,0 1084.351,0 1041.744,25.251 1108.116,0 "/>
<path style="&st41;" d="M1132.904,78.215l0.887,4.572l1.395-0.723L1132.904,78.215 M1119.729,0h-11.613l-66.372,25.251
	l-17.958,10.643l19.104,36.829l77.809-15.103l-25.524-43.066L1119.729,0"/>
<polyline style="&st49;" points="1155.662,0 1143.761,0 1158.562,38.904 1163.856,27.992 1172.309,32.092 1155.662,0 "/>
<polyline style="&st80;" points="1143.761,0 1119.729,0 1095.174,14.553 1120.698,57.62 1128.608,56.084 1132.904,78.215 
	1135.186,82.063 1138.445,80.373 1158.562,38.904 1143.761,0 "/>
<polyline style="&st18;" points="1163.856,27.992 1158.562,38.904 1168.424,64.823 1184.863,56.295 1172.309,32.092 
	1163.856,27.992 "/>
<polyline style="&st37;" points="1158.562,38.904 1138.445,80.373 1168.424,64.823 1158.562,38.904 "/>
<polyline style="&st89;" points="987.991,131.264 992.985,150 995.119,150 987.991,131.264 "/>
<polyline style="&st59;" points="971.026,86.672 946.344,91.463 957.706,150 992.985,150 987.991,131.264 971.026,86.672 "/>
<polyline style="&st7;" points="1042.89,72.723 1014.266,78.279 1020.645,150 1104.667,150 1134.787,87.914 1133.791,82.787 
	1066.275,117.808 1042.89,72.723 "/>
<polyline style="&st59;" points="1014.266,78.279 975.854,85.734 987.991,131.264 995.119,150 1002,150 1020.645,150 
	1014.266,78.279 "/>
<polyline style="&st2;" points="975.854,85.734 971.026,86.672 987.991,131.264 975.854,85.734 "/>
<polyline style="&st22;" points="1134.787,87.914 1104.667,150 1146.838,150 1134.787,87.914 "/>
<polyline style="&st56;" points="1120.698,57.62 1042.89,72.723 1066.275,117.808 1133.791,82.787 1132.904,78.215 1120.698,57.62 
	"/>
<polyline style="&st3;" points="1128.608,56.084 1120.698,57.62 1132.904,78.215 1128.608,56.084 "/>
<polyline style="&st65;" points="726.048,0 577.666,0 579.431,19.837 582.99,33.191 599.007,51.422 637.552,2.909 695.647,49.065 
	726.048,0 "/>
<polyline style="&st14;" points="582.99,33.191 589.098,56.102 595.325,56.055 599.007,51.422 582.99,33.191 "/>
<polyline style="&st10;" points="749.706,0 726.048,0 695.647,49.065 703.428,55.246 741.817,54.959 750.089,51.145 749.706,0 "/>
<polyline style="&st50;" points="750.089,51.145 741.817,54.959 750.117,54.896 750.089,51.145 "/>
<polyline style="&st58;" points="579.431,19.837 579.656,22.375 573.935,22.884 582.99,33.191 579.431,19.837 "/>
<polyline style="&st26;" points="573.935,22.884 545.81,25.385 546.042,56.424 589.098,56.102 582.99,33.191 573.935,22.884 "/>
<polyline style="&st84;" points="637.552,2.909 599.007,51.422 603.026,55.998 691.763,55.333 695.647,49.065 637.552,2.909 "/>
<polyline style="&st76;" points="599.007,51.422 595.325,56.055 603.026,55.998 599.007,51.422 "/>
<polyline style="&st33;" points="695.647,49.065 691.763,55.333 703.428,55.246 695.647,49.065 "/>
<polyline style="&st29;" points="545.619,0 429.038,0 469.33,24.965 545.654,4.62 545.619,0 "/>
<polyline style="&st27;" points="545.654,4.62 469.33,24.965 479.521,31.279 541.532,25.765 545.784,22.029 545.654,4.62 "/>
<polyline style="&st16;" points="545.784,22.029 541.532,25.765 545.81,25.385 545.784,22.029 "/>
<polyline style="&st82;" points="429.038,0 391.267,0 393.717,27.558 398.265,25.461 404.042,37.991 428.684,35.8 469.33,24.965 
	429.038,0 "/>
<polyline style="&st19;" points="469.33,24.965 428.684,35.8 479.521,31.279 469.33,24.965 "/>
<polyline style="&st30;" points="398.265,25.461 393.717,27.558 394.719,38.82 404.042,37.991 398.265,25.461 "/>
<polyline style="&st38;" points="577.666,0 574.143,0 579.431,19.837 577.666,0 "/>
<polyline style="&st38;" points="562.983,0 545.619,0 545.654,4.62 562.983,0 "/>
<polyline style="&st69;" points="574.143,0 562.983,0 545.654,4.62 545.784,22.029 561.248,8.443 573.935,22.884 579.656,22.375 
	579.431,19.837 574.143,0 "/>
<polyline style="&st43;" points="561.248,8.443 545.784,22.029 545.81,25.385 573.935,22.884 561.248,8.443 "/>
<polyline style="&st46;" points="336.756,0 321.779,0 329.101,12.354 336.756,0 "/>
<polyline style="&st15;" points="321.779,0 297.223,0 317.024,27.866 321.429,24.736 329.101,12.354 321.779,0 "/>
<polyline style="&st36;" points="356.239,0 336.756,0 329.101,12.354 331.991,17.23 356.239,0 "/>
<polyline style="&st51;" points="329.101,12.354 321.429,24.736 331.991,17.23 329.101,12.354 "/>
<polyline style="&st46;" points="3.167,0 0,0 0,40.372 20.135,32.711 3.167,0 "/>
<polyline style="&st1;" points="20.135,32.711 0,40.372 0,41.388 6.024,49.866 22.836,37.919 20.135,32.711 "/>
<polyline style="&st57;" points="76.198,0 3.167,0 20.135,32.711 41.723,24.499 76.198,0 "/>
<polyline style="&st67;" points="41.723,24.499 20.135,32.711 22.836,37.919 41.723,24.499 "/>
<polyline style="&st20;" points="820.907,0 792.032,0 822.591,18.934 820.907,0 "/>
<polyline style="&st81;" points="844.321,0 820.907,0 822.591,18.934 832.237,24.911 844.321,0 "/>
<polyline style="&st44;" points="792.032,0 773.409,0 823.049,24.082 822.591,18.934 792.032,0 "/>
<polyline style="&st60;" points="822.591,18.934 823.049,24.082 830.812,27.848 832.237,24.911 822.591,18.934 "/>
<polyline style="&st65;" points="1007.747,4.972 1010.604,37.099 1022.136,32.711 1007.747,4.972 "/>
<polyline style="&st39;" points="1005.168,0 981.485,0 1004.784,39.312 1010.604,37.099 1007.747,4.972 1005.168,0 "/>
<polyline style="&st58;" points="1022.136,32.711 1010.604,37.099 1011.162,43.376 1023.786,35.894 1022.136,32.711 "/>
<polyline style="&st68;" points="1010.604,37.099 1004.784,39.312 1008.225,45.117 1011.162,43.376 1010.604,37.099 "/>
<polyline style="&st49;" points="1084.351,0 1007.305,0 1007.747,4.972 1022.136,32.711 1041.744,25.251 1084.351,0 "/>
<polyline style="&st63;" points="1007.305,0 1005.168,0 1007.747,4.972 1007.305,0 "/>
<polyline style="&st79;" points="1041.744,25.251 1022.136,32.711 1023.786,35.894 1041.744,25.251 "/>
<path style="&st70;" d="M30.008,108.143c0.264-0.127,0.517-0.319,0.794-0.369c1.507-0.271,3.025-0.369,4.546-0.1
	c1.135,0.2,1.838,0.996,1.839,2.056c0,0.885-0.472,1.487-1.368,1.742c-0.167,0.048-0.337,0.085-0.588,0.147
	c0.29,0.074,0.501,0.119,0.705,0.185c1.151,0.37,1.712,1.31,1.57,2.621c-0.128,1.194-1.002,2.079-2.208,2.118
	c-1.333,0.044-2.668,0.006-4.003-0.006c-0.429-0.004-0.858-0.034-1.288-0.053c0-0.108,0-0.218,0-0.326
	c0.176-0.064,0.35-0.138,0.53-0.191c0.34-0.101,0.542-0.315,0.543-0.674c0.006-2.092,0.007-4.185,0.002-6.277
	c-0.001-0.383-0.217-0.551-0.599-0.561c-0.16-0.004-0.317-0.097-0.476-0.149V108.143z M33.104,113.69l-0.038,0.001
	c0.034,0.529,0.031,1.063,0.111,1.586c0.107,0.7,0.608,0.968,1.288,0.756c0.464-0.144,0.715-0.488,0.858-0.916
	c0.229-0.681,0.216-1.367-0.05-2.038c-0.31-0.779-0.879-1.139-1.712-1.129c-0.309,0.004-0.458,0.124-0.457,0.432
	C33.104,112.817,33.104,113.254,33.104,113.69z M33.097,109.768c0,0.286,0,0.57,0,0.856c0.001,0.789,0.087,0.86,0.874,0.719
	l0.119-0.026c0.645-0.182,1.013-0.7,1.075-1.516c0.053-0.697-0.296-1.434-0.845-1.631c-0.262-0.095-0.589-0.1-0.862-0.037
	c-0.146,0.033-0.321,0.284-0.343,0.455C33.063,108.975,33.098,109.374,33.097,109.768z"/>
<path style="&st70;" d="M60.841,132.434c-0.546-0.31-0.666-0.629-0.487-1.252c0.086-0.301,0.263-0.467,0.585-0.457
	c0.123,0.004,0.245,0.005,0.368,0.009c0.78,0.021,1.245-0.578,0.957-1.318c-0.428-1.102-0.911-2.182-1.382-3.266
	c-0.314-0.724-0.64-1.441-0.979-2.153c-0.166-0.35-0.375-0.604-0.86-0.425c-0.265,0.099-0.598-0.006-0.891,0.041
	c-0.13,0.021-0.337,0.192-0.337,0.295c0.002,1.278-0.007,2.56,0.079,3.834c0.049,0.729,0.455,0.856,1.069,0.455
	c0.109-0.071,0.257-0.084,0.388-0.124c-0.023,0.149,0,0.331-0.077,0.442c-0.489,0.704-1.169,1.052-2.032,0.953
	c-0.613-0.069-0.969-0.479-1.114-1.048c-0.086-0.339-0.114-0.699-0.122-1.05c-0.021-1.062-0.03-2.124-0.022-3.187
	c0.003-0.439-0.169-0.631-0.61-0.576c-0.074,0.009-0.154-0.032-0.351-0.075c0.156-0.171,0.239-0.328,0.368-0.39
	c0.818-0.386,1.449-0.947,1.84-1.777c0.057-0.12,0.239-0.182,0.363-0.271c0.05,0.13,0.136,0.258,0.144,0.39
	c0.021,0.354,0.019,0.709,0.006,1.062c-0.012,0.32,0.124,0.426,0.439,0.423c1.362-0.017,2.725-0.013,4.087-0.016l0.202,0.004
	c0.118,0.055,0.223,0.135,0.333,0.205c-0.09,0.101-0.161,0.249-0.274,0.296c-0.555,0.228-0.589,0.271-0.361,0.825
	c0.336,0.817,0.682,1.631,1.026,2.444c0.046,0.108,0.114,0.208,0.213,0.387c0.098-0.166,0.177-0.268,0.221-0.382
	c0.305-0.786,0.605-1.573,0.9-2.362c0.222-0.595,0.109-0.766-0.506-0.913c-0.147-0.035-0.263-0.2-0.393-0.306
	c0.141-0.066,0.281-0.186,0.424-0.189c0.722-0.02,1.444-0.008,2.166-0.005l0.134,0.028c0.112,0.247,0.056,0.448-0.225,0.471
	c-0.531,0.04-0.74,0.409-0.912,0.818c-0.602,1.441-1.211,2.882-1.786,4.333c-0.43,1.087-0.802,2.196-1.222,3.286
	c-0.077,0.2-0.257,0.359-0.389,0.539C61.496,132.434,61.168,132.434,60.841,132.434z"/>
<path style="&st70;" d="M127.169,112.396c-0.237,0.071-0.473,0.197-0.712,0.204c-0.939,0.024-1.879,0.023-2.818,0.005
	c-0.383-0.009-0.512,0.142-0.486,0.506c0.049,0.696,0.24,1.338,0.688,1.884c0.664,0.809,1.705,0.933,2.546,0.313l0.196-0.146
	c0.148-0.054,0.306-0.084,0.459-0.125c-0.043,0.172-0.033,0.392-0.137,0.507c-0.684,0.756-1.543,1.143-2.57,1.11
	c-1.601-0.051-2.89-1.251-3.102-2.925c-0.158-1.249,0.204-2.334,1.243-3.096c0.999-0.733,2.107-0.909,3.278-0.432
	c0.709,0.289,1.151,0.835,1.416,1.539C127.169,111.959,127.169,112.178,127.169,112.396z M124.159,112.099
	c0.186-0.011,0.419-0.006,0.646-0.042c0.471-0.075,0.693-0.37,0.65-0.827c-0.045-0.482-0.363-0.802-0.807-0.812
	c-0.523-0.012-1.02,0.33-1.231,0.905c-0.251,0.682-0.167,0.828,0.493,0.777C123.977,112.095,124.045,112.099,124.159,112.099z"/>
<path style="&st70;" d="M67.555,99.179c0.223,0.08,0.447,0.094,0.508,0.201c0.062,0.109-0.039,0.309-0.064,0.47l-0.02,0.245
	c0.157,0.297,0.334,0.583,0.52,0.899c0.29-0.43-0.19-1.026,0.389-1.371c-0.195-0.301-0.385-0.629-0.606-0.933
	c-2.969-4.073-1.729-10.975,2.74-13.861c1.026-0.663,2.133-1.2,3.165-1.855c1.87-1.186,3.243-2.721,3.377-5.08
	c0.017-0.299,0.127-0.619,0.28-0.879c0.333-0.568,1.099-0.594,1.46-0.043c0.171,0.261,0.296,0.6,0.307,0.908
	c0.053,1.504,0.75,2.671,1.721,3.771c0.835,0.948,1.919,1.448,2.981,2.021c1.595,0.861,3.051,1.898,4.167,3.357
	c1.203,1.574,1.755,3.384,1.957,5.329c0.154,1.483,0.118,2.956-0.505,4.327c-0.431,0.948-1.012,1.828-1.525,2.739l-0.114,0.209
	c0.592,0.324,0.1,0.918,0.385,1.373c0.188-0.327,0.367-0.625,0.529-0.93l-0.014-0.213c-0.032-0.16-0.144-0.354-0.087-0.468
	c0.054-0.11,0.277-0.137,0.458-0.215c0.195,0.876-0.137,1.739,0.262,2.608c-0.073,0.228-0.333,0.213-0.596,0.213
	c-6.227-0.002-12.454-0.001-18.681-0.001c-0.899,0-1.799,0.01-2.698-0.009c-0.187-0.004-0.371-0.117-0.464-0.148
	c0.073-0.354,0.156-0.591,0.165-0.83C67.569,100.433,67.555,99.85,67.555,99.179z M76.88,99.091c-0.2-0.05-0.294-0.103-0.376-0.089
	c-0.354,0.063-0.474-0.127-0.55-0.43c-0.162-0.646-0.396-1.278-0.506-1.932c-0.097-0.578-0.367-1.029-0.692-1.492
	c-0.277-0.394-0.522-0.835-0.663-1.292c-0.258-0.844,0.052-1.589,0.621-2.216c0.396-0.438,0.649-0.925,0.767-1.501
	c0.281-1.381,0.824-2.666,1.411-3.944c1.23-2.677,1.976-5.472,1.789-8.456c-0.013-0.204-0.052-0.406-0.083-0.633
	c-0.496,0.143-0.486,0.502-0.502,0.813c-0.137,2.566-1.59,4.291-3.667,5.535c-1.283,0.768-2.658,1.383-3.808,2.363
	c-1.481,1.263-2.594,2.74-2.812,4.762c-0.058,0.543-0.015,0.998,0.332,1.448c0.668,0.866,0.769,1.842,0.374,2.853
	c-0.106,0.273-0.093,0.469,0.063,0.711c0.843,1.307,1.731,2.575,2.904,3.497c-0.02,0.296-0.036,0.518-0.049,0.74
	c-0.01,0.162,0.021,0.337-0.031,0.484c-0.129,0.363-0.294,0.714-0.45,1.082c0.723,0.114,0.723,0.114,0.976-0.465
	c0.087-0.199,0.202-0.392,0.252-0.601c0.042-0.176,0.04-0.377,0.001-0.555c-0.052-0.236-0.025-0.393,0.273-0.472
	c0.021,0.508,0.381,0.427,0.703,0.426c0.522-0.001,0.616,0.154,0.376,0.622c-0.177,0.344-0.361,0.684-0.552,1.044
	c0.832,0.13,0.832,0.13,1.129-0.552c0.054-0.125,0.109-0.249,0.164-0.374c0.107-0.245,0.255-0.473,0.057-0.76
	c-0.044-0.064,0.104-0.261,0.164-0.396c0.079,0.087,0.162,0.17,0.235,0.262l0.06,0.155c0.165,0,0.314-0.001,0.463,0
	c0.587,0.003,0.669,0.149,0.388,0.687c-0.167,0.321-0.335,0.641-0.51,0.977c0.823,0.14,0.823,0.14,1.12-0.537
	c0.093-0.211,0.192-0.42,0.279-0.635l0.053-0.265C76.33,99.599,76.491,99.354,76.88,99.091z M78.25,95.553
	c1.913-1.803,1.71-3.086,0.033-4.627C76.464,92.549,76.359,93.719,78.25,95.553z M81.407,91.033
	c-1.772,1.797-1.788,3.089-0.053,4.54C83.146,93.944,83.202,92.873,81.407,91.033z M84.451,95.662
	c1.575-1.632,1.583-2.937,0.053-4.583C83.067,92.565,82.217,93.541,84.451,95.662z M87.168,91.166
	c-1.484,1.486-1.489,3.171-0.013,4.383C88.496,93.811,88.499,92.547,87.168,91.166z M75.369,95.364
	c1.462-1.442,1.55-2.599,0.118-4.063C74.065,92.584,74.021,93.924,75.369,95.364z M89.416,91.248
	c-1.143,1.493-1.147,3.08-0.036,4.224C90.424,94.076,90.437,92.915,89.416,91.248z M87.538,99.131l-0.066-0.155
	c-0.276,0.043-0.598,0.012-0.815,0.148c-0.262,0.165-0.292,0.483-0.174,0.808c0.046,0.126-0.03,0.312-0.085,0.457
	c-0.128,0.333-0.277,0.659-0.423,1.001c0.726,0.119,0.726,0.119,0.978-0.472c0.085-0.2,0.174-0.398,0.256-0.599
	c0.045-0.111,0.146-0.275,0.106-0.333C87.056,99.619,87.217,99.364,87.538,99.131z M81.089,99.151l-0.049-0.167
	c-0.273,0.037-0.591,0-0.808,0.132c-0.261,0.157-0.331,0.469-0.191,0.796c0.043,0.1,0.006,0.253-0.038,0.366
	c-0.144,0.371-0.307,0.734-0.468,1.112c0.713,0.117,0.713,0.117,0.974-0.463c0.105-0.234,0.21-0.469,0.308-0.707l0.057-0.263
	C80.604,99.605,80.767,99.365,81.089,99.151z M70.508,99.124l-0.053-0.128c-0.271,0.032-0.597-0.016-0.797,0.121
	c-0.161,0.109-0.186,0.438-0.239,0.677c-0.044,0.197-0.004,0.416-0.065,0.604c-0.109,0.336-0.266,0.657-0.41,1
	c0.73,0.096,0.73,0.096,0.981-0.48c0.087-0.199,0.176-0.396,0.257-0.598c0.044-0.111,0.143-0.273,0.101-0.335
	C70.034,99.619,70.196,99.362,70.508,99.124z M85.397,99.139l-0.07-0.161c-0.275,0.043-0.591,0.017-0.815,0.147
	c-0.259,0.151-0.266,0.466-0.187,0.772c0.036,0.138-0.008,0.312-0.061,0.454c-0.13,0.347-0.287,0.684-0.438,1.039
	c0.726,0.121,0.729,0.122,0.979-0.461c0.133-0.31,0.407-0.667,0.338-0.93C85.044,99.616,85.024,99.363,85.397,99.139z
	 M81.666,101.415c0.29,0,0.528,0.048,0.734-0.013c0.221-0.066,0.589-1.37,0.542-1.608c-0.028-0.145,0.024-0.328,0.099-0.461
	c0.038-0.067,0.205-0.062,0.313-0.089c-0.059-0.09-0.118-0.18-0.177-0.271c-0.274,0.046-0.594,0.019-0.812,0.155
	c-0.264,0.165-0.295,0.485-0.171,0.805c0.04,0.103-0.007,0.256-0.053,0.371C82,100.663,81.839,101.015,81.666,101.415z
	 M77.393,101.375c0.697,0.152,0.726,0.138,0.969-0.444c0.13-0.312,0.43-0.685,0.348-0.926c-0.139-0.407-0.114-0.657,0.249-0.95
	c-0.332-0.033-0.66-0.071-0.863,0.07c-0.16,0.111-0.182,0.44-0.233,0.68c-0.039,0.184,0.012,0.392-0.046,0.566
	C77.702,100.71,77.54,101.035,77.393,101.375z"/>
<path style="&st70;" d="M53.301,102.002c-2.043,0-4.086,0-6.129,0c-0.347,0-0.691,0.009-0.51-0.522l-0.188-0.234
	c-1.643-1.328-1.849-3.046-1.328-4.946c0.277-1.009,0.981-1.681,1.889-2.139c0.642-0.324,1.305-0.609,1.967-0.89
	c1.057-0.448,1.89-1.126,2.329-2.216c0.298-0.742,0.606-1.481,0.87-2.236c0.232-0.666,0.477-0.936,1.002-0.966
	c0.63-0.036,0.93,0.207,1.153,0.804c0.351,0.938,0.735,1.864,1.126,2.787c0.295,0.695,0.838,1.173,1.497,1.504
	c0.691,0.347,1.391,0.691,2.114,0.961c3.29,1.226,3.31,5.711,1.085,7.317c-0.104,0.075-0.167,0.271-0.17,0.412
	c-0.008,0.296-0.162,0.367-0.416,0.366c-1.062-0.003-2.125-0.001-3.187-0.001C55.371,102.002,54.336,102.002,53.301,102.002z
	 M50.519,101.332c-0.081-0.171-0.164-0.298-0.203-0.437c-0.226-0.808-0.525-1.606-0.64-2.431c-0.165-1.184,0.386-2.166,1.036-3.135
	c1.069-1.595,2.005-3.274,2.403-5.187c0.133-0.638,0.197-1.29,0.292-1.935l-0.188-0.083c-0.159,0.198-0.363,0.375-0.467,0.598
	c-0.177,0.38-0.294,0.789-0.429,1.188c-0.463,1.359-1.064,2.642-2.273,3.501c-0.673,0.479-1.396,0.899-2.134,1.272
	c-1.396,0.708-1.896,2.324-1.585,3.642c0.283,1.201,1.197,1.871,2.091,2.567C49.033,101.37,49.724,101.461,50.519,101.332z"/>
<path style="&st70;" d="M103.905,102.002c-2.057,0-4.114,0-6.17-0.001c-0.333,0-0.661,0.004-0.509-0.509
	c0.021-0.07-0.132-0.218-0.232-0.294c-1.886-1.447-1.783-4.035-1.008-5.526c0.45-0.866,1.231-1.359,2.087-1.75
	c0.643-0.293,1.295-0.565,1.933-0.868c0.786-0.373,1.416-0.921,1.761-1.739c0.363-0.861,0.719-1.726,1.046-2.601
	c0.229-0.611,0.484-0.857,1.033-0.865c0.605-0.008,0.86,0.209,1.073,0.793c0.315,0.866,0.657,1.723,1.012,2.574
	c0.399,0.959,1.155,1.557,2.078,1.975c0.767,0.347,1.548,0.669,2.292,1.062c1.35,0.711,1.896,1.91,1.971,3.386
	c0.075,1.477-0.402,2.696-1.574,3.626c-0.081,0.064-0.149,0.222-0.131,0.318c0.06,0.32-0.083,0.42-0.368,0.419
	c-0.463-0.002-0.926,0-1.389,0C107.174,102.002,105.539,102.002,103.905,102.002z M101.055,101.394
	c-0.193-0.544-0.403-1.072-0.569-1.613c-0.417-1.362-0.371-2.667,0.432-3.912c0.618-0.958,1.178-1.953,1.748-2.941
	c0.563-0.976,0.892-2.041,1.104-3.139c0.101-0.521,0.134-1.055,0.198-1.583l-0.169-0.08c-0.153,0.184-0.353,0.346-0.448,0.556
	c-0.19,0.419-0.338,0.86-0.478,1.3c-0.585,1.843-1.637,3.302-3.399,4.188c-0.328,0.165-0.641,0.36-0.973,0.516
	c-1.867,0.879-2.338,3.672-0.669,5.229c0.338,0.315,0.704,0.601,1.05,0.909C99.502,101.375,100.212,101.589,101.055,101.394z"/>
<path style="&st70;" d="M65.949,100.785c0.129-0.275,0.259-0.549,0.333-0.706c-0.075-0.294-0.181-0.487-0.145-0.65
	c0.023-0.104,0.255-0.161,0.494-0.296c0,0.729-0.003,1.335,0.002,1.941c0.001,0.146,0.007,0.301,0.055,0.437
	c0.113,0.321,0.028,0.483-0.314,0.488c-0.695,0.009-1.39,0.003-2.085,0.003s-1.39,0.002-2.084-0.001
	c-0.462-0.002-0.49-0.088-0.398-0.544c0.069-0.341,0.029-0.705,0.033-1.058c0.003-0.367,0.001-0.733,0.001-1.201
	c0.194,0.071,0.414,0.087,0.464,0.188c0.058,0.114-0.037,0.305-0.064,0.462l-0.035,0.238c0.091,0.237,0.206,0.464,0.389,0.683
	c0.011-0.098,0.033-0.195,0.033-0.292c0.002-0.858-0.001-1.717,0.002-2.575c0.001-0.348-0.038-0.686,0.229-1.002
	c0.119-0.141,0.018-0.45,0.066-0.672c0.076-0.351,0.143-0.719,0.309-1.029c0.148-0.275,0.154-0.486,0.045-0.762
	c-0.106-0.269-0.201-0.564-0.202-0.848c-0.014-3.052-0.001-6.104-0.017-9.157c-0.002-0.458,0.138-0.816,0.441-1.138
	c0.285-0.303,0.253-0.392-0.105-0.589c-0.171-0.094-0.358-0.227-0.447-0.392c-0.189-0.346-0.437-0.547-0.838-0.508
	c-0.118-0.321,0.03-0.407,0.281-0.369c0.418,0.063,0.511-0.133,0.487-0.508c-0.027-0.434-0.018-0.872-0.001-1.308
	c0.011-0.282-0.055-0.438-0.379-0.425c-0.113,0.004-0.23-0.104-0.346-0.162c0.116-0.054,0.229-0.146,0.349-0.154
	c0.425-0.031,0.52-0.18,0.58-0.591c0.047-0.328,0.203-0.657,0.379-0.944c0.196-0.319,0.47-0.589,0.718-0.891
	c-0.146-0.171-0.258-0.301-0.369-0.43c0.336-0.443,0.435-0.449,0.865-0.037L64.515,76.2c-0.053,0.061-0.118,0.11-0.237,0.219
	c0.251,0.309,0.482,0.623,0.744,0.908c0.263,0.285,0.417,0.588,0.393,0.989c-0.022,0.385,0.153,0.528,0.557,0.561
	c0.119,0.01,0.232,0.103,0.348,0.158c-0.116,0.057-0.233,0.161-0.349,0.159c-0.283-0.004-0.388,0.097-0.378,0.383
	c0.017,0.49,0.019,0.981-0.001,1.471c-0.013,0.309,0.101,0.414,0.403,0.389c0.201-0.017,0.483-0.081,0.382,0.354
	c-0.433-0.034-0.694,0.212-0.898,0.592c-0.085,0.159-0.296,0.28-0.476,0.354c-0.282,0.116-0.294,0.306-0.116,0.463
	c0.484,0.426,0.529,0.961,0.525,1.554c-0.016,2.971-0.003,5.941-0.015,8.912c-0.001,0.246-0.069,0.508-0.174,0.731
	c-0.141,0.299-0.197,0.555,0.046,0.825c0.088,0.098,0.173,0.227,0.196,0.354c0.136,0.744,0.315,1.488,0.363,2.239
	c0.062,0.976,0.015,1.958,0.015,2.938L65.949,100.785z M63.429,88.84c0,0.449,0,0.898,0,1.347c0,1.102-0.003,2.205,0.006,3.307
	c0.001,0.1,0.083,0.199,0.126,0.298c0.058-0.099,0.123-0.195,0.17-0.299l0.004-0.162c0-2.967,0-5.934,0-8.901
	c0-0.108,0.008-0.22-0.012-0.325l-0.113-0.127l-0.167,0.128c-0.029,0.102-0.014,0.216-0.014,0.324
	C63.429,85.9,63.429,87.37,63.429,88.84z M63.177,101.479c0.346-0.047,0.705,0.001,0.786-0.125c0.256-0.407,0.552-0.877,0.557-1.326
	c0.003-0.359-0.12-0.675,0.295-0.908c-0.732-0.281-1.24-0.004-1.12,0.575c0.078,0.374-0.035,0.65-0.169,0.955
	C63.424,100.881,63.329,101.117,63.177,101.479z M64.106,80.334c0,0.272-0.016,0.545,0.009,0.815l0.185,0.25l0.215-0.217
	c0.018-0.571,0.019-1.143,0.001-1.714l-0.206-0.245l-0.194,0.254C64.091,79.761,64.107,80.048,64.106,80.334z M63.197,80.335h-0.001
	c0,0.271-0.015,0.544,0.008,0.813l0.173,0.25l0.219-0.213c0.017-0.569,0.017-1.14-0.003-1.708l-0.217-0.223l-0.17,0.226
	C63.185,79.765,63.197,80.05,63.197,80.335z M65.225,79.279l-0.1,0c0,0.7,0,1.399,0,2.099l0.1-0.003
	C65.225,80.676,65.225,79.978,65.225,79.279z"/>
<path style="&st70;" d="M92.888,76.449c-0.166-0.187-0.273-0.307-0.378-0.425c0.358-0.447,0.447-0.451,0.876-0.029
	c-0.11,0.129-0.222,0.261-0.383,0.45c0.225,0.278,0.448,0.582,0.7,0.858c0.258,0.283,0.437,0.578,0.416,0.981
	c-0.022,0.429,0.13,0.56,0.565,0.593c0.117,0.009,0.228,0.105,0.341,0.162c-0.118,0.055-0.238,0.158-0.354,0.155
	c-0.295-0.009-0.375,0.118-0.369,0.392c0.014,0.596,0.004,1.193,0.004,1.715c0.246,0.294,0.776-0.141,0.812,0.48
	c-0.446-0.007-0.718,0.198-0.918,0.571c-0.091,0.171-0.312,0.297-0.501,0.385c-0.276,0.128-0.277,0.315-0.102,0.473
	c0.449,0.406,0.524,0.903,0.521,1.476c-0.018,2.984-0.004,5.969-0.017,8.954c-0.001,0.258-0.08,0.532-0.188,0.77
	c-0.131,0.289-0.163,0.532,0.045,0.794c0.1,0.125,0.227,0.287,0.221,0.427c-0.034,0.908,0.446,1.733,0.381,2.652
	c-0.058,0.821-0.012,1.649-0.012,2.475l0.111,0.031c0.112-0.249,0.232-0.495,0.332-0.749l-0.061-0.199
	c-0.036-0.146-0.137-0.333-0.083-0.43c0.061-0.109,0.265-0.138,0.477-0.232c0,0.719-0.003,1.331,0.003,1.942
	c0.001,0.132,0.016,0.272,0.063,0.394c0.12,0.307,0.024,0.48-0.315,0.485c-0.654,0.009-1.309,0.003-1.963,0.003
	c-0.75,0-1.499,0.003-2.249-0.002c-0.407-0.002-0.453-0.127-0.369-0.51c0.074-0.338,0.044-0.701,0.05-1.053
	c0.006-0.38,0.001-0.761,0.001-1.242c0.196,0.074,0.399,0.089,0.468,0.194c0.062,0.093-0.021,0.285-0.047,0.432
	c-0.016,0.092-0.085,0.196-0.059,0.269c0.086,0.238,0.205,0.464,0.393,0.685c0.01-0.11,0.029-0.221,0.03-0.331
	c0.002-0.845-0.002-1.69,0.002-2.535c0.001-0.347-0.053-0.695,0.229-1.001c0.101-0.109,0.062-0.365,0.055-0.553
	c-0.017-0.45,0.083-0.849,0.334-1.236c0.101-0.155,0.063-0.425,0.034-0.635c-0.048-0.34-0.203-0.673-0.205-1.009
	c-0.017-3.026-0.002-6.052-0.018-9.078c-0.002-0.446,0.143-0.788,0.437-1.098c0.298-0.315,0.269-0.388-0.127-0.604
	c-0.161-0.087-0.335-0.215-0.416-0.369c-0.183-0.351-0.433-0.549-0.829-0.532c-0.053-0.31-0.053-0.31,0.741-0.404
	c0-0.661,0.01-1.334-0.015-2.005c-0.002-0.064-0.22-0.123-0.34-0.181c-0.118-0.056-0.238-0.107-0.357-0.161
	c0.113-0.057,0.222-0.155,0.339-0.165c0.433-0.034,0.526-0.172,0.584-0.593c0.043-0.316,0.184-0.638,0.355-0.912
	C92.342,77.044,92.625,76.765,92.888,76.449z M92.44,88.888c0-1.17,0-2.341,0-3.511c0-0.395,0.005-0.79-0.008-1.184l-0.116-0.222
	l-0.176,0.214l-0.007,0.243c0,2.98,0,5.961,0,8.941c0,0.095-0.015,0.196,0.014,0.284l0.158,0.134l0.122-0.123
	c0.021-0.105,0.013-0.216,0.013-0.325C92.44,91.855,92.44,90.372,92.44,88.888z M93.418,99.128l-0.113-0.133
	c-0.273,0.03-0.591-0.017-0.807,0.111c-0.258,0.152-0.34,0.464-0.205,0.793c0.042,0.103,0.012,0.257-0.032,0.371
	c-0.143,0.372-0.307,0.736-0.497,1.183c0.317-0.021,0.672,0.044,0.74-0.066c0.265-0.432,0.598-0.921,0.595-1.386
	C93.098,99.644,92.968,99.354,93.418,99.128z M93.236,80.3c0-0.259,0.019-0.52-0.009-0.775c-0.012-0.105-0.125-0.199-0.191-0.298
	c-0.074,0.091-0.207,0.18-0.211,0.274c-0.021,0.544-0.02,1.089-0.001,1.633c0.003,0.091,0.136,0.177,0.208,0.265
	c0.067-0.094,0.184-0.183,0.194-0.283C93.253,80.847,93.235,80.573,93.236,80.3z M91.905,81.332l0.127,0.113
	c0.093-0.094,0.262-0.185,0.267-0.283c0.024-0.555,0.019-1.112,0-1.667l-0.204-0.242l-0.182,0.253
	C91.897,80.114,91.905,80.723,91.905,81.332z M93.939,79.279c-0.249,0.428-0.203,1.907,0,2.116
	C93.939,80.675,93.939,79.977,93.939,79.279z"/>
<path style="&st70;" d="M78.588,102.681c10.496,0,20.992,0,31.487,0c0.109,0,0.249-0.041,0.321,0.011
	c0.146,0.104,0.333,0.247,0.355,0.396c0.017,0.112-0.176,0.292-0.314,0.379c-0.101,0.063-0.265,0.027-0.401,0.027
	c-20.978,0.001-41.956,0.002-62.934,0.001c-0.136,0-0.301,0.03-0.4-0.035c-0.128-0.082-0.292-0.256-0.278-0.372
	c0.017-0.145,0.179-0.298,0.316-0.393c0.083-0.058,0.238-0.014,0.361-0.014C57.596,102.681,68.092,102.681,78.588,102.681z"/>
<path style="&st70;" d="M99.739,116.582c-0.586,0-1.172,0.011-1.757-0.008c-0.119-0.004-0.234-0.119-0.351-0.183
	c0.098-0.125,0.17-0.318,0.296-0.363c0.756-0.271,0.797-0.308,0.798-1.099c0.001-1.867,0.001-3.734,0-5.602
	c0-0.74-0.091-0.841-0.801-1.056c-0.119-0.036-0.197-0.202-0.295-0.308c0.112-0.071,0.224-0.202,0.336-0.204
	c1.184-0.015,2.367-0.015,3.551,0c0.114,0.003,0.227,0.138,0.34,0.211c-0.102,0.104-0.186,0.269-0.308,0.304
	c-0.722,0.211-0.812,0.311-0.813,1.045c-0.001,0.613,0.009,1.228-0.003,1.841c-0.006,0.301,0.13,0.423,0.413,0.422
	c0.75,0,1.5-0.003,2.249,0.002c0.291,0.002,0.413-0.119,0.406-0.42c-0.015-0.653-0.001-1.309-0.005-1.963
	c-0.003-0.589-0.154-0.774-0.721-0.909l-0.118-0.021c-0.087-0.101-0.164-0.21-0.245-0.316c0.101-0.067,0.199-0.19,0.302-0.194
	c0.353-0.01,0.707,0.036,1.061,0.035c0.708-0.004,1.415-0.023,2.123-0.037c0.136-0.002,0.282-0.036,0.406,0.001
	c0.121,0.036,0.22,0.145,0.329,0.222c-0.091,0.101-0.165,0.256-0.276,0.292c-0.797,0.252-0.84,0.3-0.84,1.142
	c0,1.854,0.007,3.708-0.004,5.561c-0.004,0.582,0.106,0.962,0.801,1.058c0.12,0.017,0.212,0.225,0.317,0.345
	c-0.129,0.067-0.258,0.189-0.388,0.191c-1.157,0.016-2.315,0.016-3.473,0c-0.12-0.003-0.239-0.14-0.358-0.214
	c0.095-0.112,0.168-0.286,0.288-0.33c0.767-0.272,0.797-0.301,0.798-1.095c0-0.777-0.009-1.555,0.005-2.332
	c0.005-0.296-0.09-0.409-0.398-0.402c-0.763,0.017-1.527,0.014-2.29,0c-0.281-0.004-0.385,0.092-0.381,0.378
	c0.013,0.858-0.002,1.718,0.006,2.576c0.005,0.536,0.169,0.726,0.689,0.854l0.193,0.051c0.09,0.099,0.157,0.222,0.232,0.334
	c-0.106,0.063-0.21,0.176-0.318,0.18c-0.599,0.018-1.198,0.009-1.798,0.009L99.739,116.582z"/>
<path style="&st70;" d="M90.252,115.246c-0.359,0.332-0.654,0.633-0.979,0.897c-0.741,0.606-1.597,0.735-2.5,0.493
	c-0.961-0.259-1.538-0.915-1.687-1.893c-0.146-0.963,0.134-1.787,0.985-2.337c0.43-0.277,0.892-0.506,1.38-0.778
	c-0.164-0.279-0.323-0.542-0.474-0.81c-0.885-1.566-0.156-3.016,1.621-3.248c0.731-0.097,1.44-0.044,2.123,0.234
	c0.542,0.222,0.882,0.611,0.951,1.217c0.073,0.646-0.129,1.165-0.695,1.494c-0.395,0.229-0.822,0.403-1.295,0.632
	c0.512,0.672,1.017,1.335,1.601,2.1c0.206-0.417,0.389-0.741,0.518-1.086c0.029-0.076-0.104-0.263-0.207-0.329
	c-0.118-0.075-0.297-0.051-0.428-0.114l-0.196-0.244l0.222-0.216c0.844-0.017,1.688-0.017,2.532,0l0.212,0.225l-0.199,0.239
	c-1.084,0.122-1.465,1.036-1.995,1.772c-0.065,0.091-0.037,0.322,0.036,0.43c0.351,0.518,0.698,1.046,1.114,1.509
	c0.229,0.254,0.598,0.381,0.893,0.58c0.12,0.082,0.213,0.203,0.319,0.308c-0.119,0.084-0.237,0.241-0.356,0.243
	c-0.788,0.009-1.576-0.002-2.363-0.044c-0.143-0.007-0.306-0.159-0.409-0.286C90.729,115.932,90.511,115.604,90.252,115.246z
	 M86.942,113.775c0.096,0.216,0.223,0.687,0.486,1.059c0.541,0.765,1.538,0.849,2.216,0.255c0.157-0.138,0.26-0.271,0.096-0.48
	c-0.613-0.779-1.214-1.57-1.837-2.342l-0.357-0.025C87.13,112.559,86.956,113.006,86.942,113.775z M90.181,109.541
	c-0.13-0.39-0.201-0.727-0.352-1.023c-0.223-0.436-0.628-0.601-0.974-0.465c-0.345,0.137-0.575,0.608-0.403,1.04
	c0.188,0.474,0.478,0.907,0.729,1.354c0.151,0.268,0.377,0.246,0.52,0.033C89.898,110.186,90.028,109.848,90.181,109.541z"/>
<path style="&st70;" d="M56.961,110.837c0.289-0.188,0.49-0.322,0.695-0.451c0.548-0.344,1.138-0.528,1.788-0.402
	c1.052,0.203,1.602,0.901,1.621,2.082c0.017,1.021,0.002,2.044,0.005,3.065c0.001,0.623,0.074,0.694,0.667,0.889
	c0.129,0.043,0.213,0.226,0.318,0.343c-0.13,0.066-0.259,0.187-0.39,0.188c-0.994,0.016-1.988,0.016-2.982-0.002
	c-0.123-0.002-0.243-0.136-0.364-0.207c0.092-0.113,0.164-0.293,0.279-0.328c0.411-0.122,0.561-0.392,0.558-0.791
	c-0.006-1.062-0.001-2.125-0.018-3.188c-0.006-0.432-0.085-0.864-0.537-1.064c-0.449-0.2-0.909-0.116-1.262,0.192
	c-0.2,0.176-0.381,0.489-0.391,0.748c-0.042,1.102-0.02,2.206-0.016,3.31c0.001,0.426,0.173,0.723,0.616,0.848
	c0.102,0.028,0.163,0.198,0.243,0.303c-0.106,0.062-0.212,0.178-0.32,0.179c-1.035,0.014-2.07,0.015-3.104-0.003
	c-0.106-0.001-0.21-0.144-0.314-0.222c0.088-0.103,0.156-0.261,0.266-0.3c0.681-0.245,0.724-0.291,0.724-1.016
	c0-2.126,0-4.251,0-6.376c0-0.644-0.022-0.665-0.624-0.856c-0.101-0.033-0.179-0.136-0.268-0.205
	c0.083-0.093,0.15-0.232,0.252-0.268c0.705-0.238,1.417-0.457,2.128-0.68c0.337-0.104,0.399,0.088,0.398,0.365
	c-0.003,1.09-0.002,2.18,0.001,3.271C56.93,110.42,56.946,110.578,56.961,110.837z"/>
<path style="&st70;" d="M49.091,114.393c-0.239-0.15-0.499-0.276-0.715-0.454c-1.266-1.04-0.93-3.038,0.634-3.715
	c0.886-0.383,1.824-0.418,2.708-0.058c0.581,0.235,1.146,0.317,1.746,0.275c0.315-0.021,0.397,0.118,0.413,0.402
	c0.017,0.307-0.149,0.332-0.38,0.319c-0.147-0.008-0.296-0.001-0.466-0.001l0.019,0.188c0.661,1.263-0.08,2.863-1.774,3.165
	c-0.386,0.068-0.79,0.023-1.178,0.083c-0.203,0.032-0.389,0.177-0.583,0.271c0.195,0.136,0.381,0.373,0.587,0.393
	c0.716,0.066,1.443,0.021,2.161,0.085c1.396,0.125,2.074,1.423,1.404,2.658c-0.482,0.89-1.285,1.356-2.242,1.552
	c-0.921,0.188-1.845,0.139-2.745-0.146c-0.546-0.173-1.043-0.439-1.228-1.035c-0.194-0.625,0.032-1.122,0.618-1.434
	c0.224-0.118,0.456-0.221,0.763-0.367c-0.238-0.25-0.43-0.45-0.62-0.654c-0.68-0.728-0.676-0.746,0.214-1.158
	c0.208-0.097,0.417-0.195,0.624-0.296L49.091,114.393z M51.522,112.329c-0.117-0.441-0.187-1.02-0.426-1.518
	c-0.287-0.601-1.142-0.573-1.401,0.037c-0.409,0.958-0.339,1.938,0.131,2.867c0.148,0.292,0.448,0.438,0.792,0.391
	c0.335-0.048,0.589-0.234,0.674-0.569C51.383,113.186,51.431,112.823,51.522,112.329z M50.738,119.139
	c0.411,0,0.916-0.08,1.308-0.476c0.243-0.245,0.359-0.54,0.258-0.89c-0.097-0.335-0.351-0.467-0.669-0.503
	c-0.228-0.026-0.459-0.028-0.687-0.059c-0.48-0.066-0.966-0.115-1.437-0.225c-0.386-0.091-0.568-0.058-0.658,0.328
	c-0.059,0.252-0.056,0.546,0.013,0.794C49.05,118.78,49.674,119.125,50.738,119.139z"/>
<path style="&st70;" d="M113.34,123.963c0,1.335-0.001,2.67,0,4.005c0.001,0.567,0.143,0.722,0.692,0.895
	c0.145,0.046,0.249,0.222,0.372,0.338c-0.14,0.066-0.279,0.191-0.419,0.191c-1.21-0.004-2.42-0.044-3.629-0.045
	c-1.087-0.001-2.175,0.036-3.262,0.052c-0.197,0.002-0.475,0.048-0.466-0.237c0.003-0.112,0.256-0.27,0.42-0.312
	c0.314-0.081,0.517-0.196,0.518-0.562c0.004-1.075,0.032-2.15,0.038-3.226c0.002-0.391-0.175-0.64-0.603-0.679
	c-0.102-0.009-0.193-0.141-0.289-0.216c0.085-0.094,0.156-0.246,0.258-0.272c0.758-0.196,1.417-0.544,1.941-1.139l0.356-0.094
	c0.082,0.039,0.13,0.223,0.131,0.344c0.008,1.677,0.005,3.353,0.007,5.027c0,0.662,0.491,1.033,1.136,0.862
	c0.857-0.226,0.911-0.294,0.911-1.166c0-2.071,0-4.142-0.001-6.213c0-0.691-0.004-0.688-0.658-0.919l-0.211-0.187
	c0.028-0.101,0.112-0.23,0.203-0.261c0.731-0.245,1.467-0.479,2.207-0.696c0.325-0.095,0.35,0.137,0.349,0.38
	C113.338,121.211,113.34,122.587,113.34,123.963z"/>
<path style="&st70;" d="M76.443,110.908c0.322-0.24,0.549-0.434,0.798-0.592c0.752-0.478,1.536-0.491,2.329-0.105
	c0.714,0.348,0.95,0.967,0.951,1.713c0,1.062-0.002,2.124,0.001,3.187c0.002,0.657,0.056,0.706,0.684,0.911
	c0.123,0.04,0.204,0.208,0.304,0.317c-0.126,0.073-0.25,0.208-0.377,0.211c-0.98,0.017-1.96,0.014-2.94,0
	c-0.108-0.001-0.215-0.108-0.322-0.167c0.066-0.12,0.114-0.327,0.203-0.348c0.579-0.131,0.641-0.535,0.631-1.025
	c-0.019-0.938-0.009-1.879-0.021-2.818c-0.002-0.188-0.036-0.38-0.083-0.562c-0.142-0.552-0.554-0.854-1.068-0.801
	c-0.58,0.059-1.082,0.542-1.087,1.08c-0.012,1.089,0.001,2.179-0.011,3.268c-0.005,0.42,0.139,0.696,0.558,0.837
	c0.116,0.04,0.185,0.22,0.276,0.335c-0.123,0.07-0.245,0.199-0.369,0.202c-0.953,0.017-1.906,0.019-2.858-0.001
	c-0.136-0.003-0.27-0.148-0.405-0.228c0.119-0.104,0.224-0.276,0.359-0.305c0.413-0.084,0.626-0.3,0.624-0.721
	c-0.005-1.088-0.005-2.176-0.022-3.265c-0.005-0.314-0.241-0.418-0.519-0.478c-0.128-0.028-0.239-0.133-0.357-0.204
	c0.108-0.104,0.199-0.27,0.327-0.305c0.721-0.208,1.369-0.518,1.865-1.106c0.074-0.087,0.254-0.157,0.352-0.128
	c0.084,0.025,0.157,0.202,0.171,0.318C76.462,110.354,76.443,110.586,76.443,110.908z"/>
<path style="&st70;" d="M95.255,123.762c0.317-0.241,0.536-0.422,0.769-0.582c0.64-0.441,1.34-0.501,2.064-0.269
	c0.829,0.268,1.239,0.854,1.252,1.798c0.015,1.075,0.003,2.152,0.004,3.228c0.001,0.659,0.052,0.71,0.674,0.922
	c0.124,0.042,0.208,0.203,0.311,0.309c-0.12,0.078-0.239,0.219-0.36,0.221c-0.98,0.02-1.96,0.019-2.94,0.003
	c-0.115-0.002-0.229-0.129-0.344-0.198c0.079-0.113,0.14-0.301,0.24-0.325c0.507-0.12,0.625-0.48,0.62-0.921
	c-0.01-1.048-0.008-2.097-0.058-3.143c-0.035-0.742-0.47-1.162-1.073-1.137c-0.679,0.028-1.155,0.545-1.158,1.27
	c-0.004,1.007,0.006,2.015-0.004,3.022c-0.005,0.442,0.121,0.76,0.588,0.9c0.108,0.033,0.167,0.229,0.249,0.35
	c-0.118,0.064-0.236,0.181-0.355,0.183c-0.966,0.015-1.933,0.017-2.899-0.003c-0.126-0.002-0.25-0.14-0.375-0.215
	c0.101-0.107,0.183-0.273,0.306-0.313c0.616-0.203,0.688-0.271,0.692-0.91c0.007-0.927,0.007-1.854,0-2.779
	c-0.005-0.555-0.096-0.649-0.616-0.784c-0.1-0.026-0.18-0.128-0.27-0.194c0.076-0.1,0.133-0.227,0.231-0.29
	c0.109-0.07,0.272-0.054,0.384-0.122c0.495-0.298,0.977-0.616,1.468-0.921c0.142-0.086,0.298-0.148,0.448-0.222
	c0.051,0.154,0.124,0.306,0.146,0.464C95.274,123.284,95.255,123.473,95.255,123.762z"/>
<path style="&st70;" d="M91.422,122.954c0,0.217,0,0.377,0,0.537c0,1.403,0.01,2.806-0.007,4.209c-0.005,0.4,0.1,0.656,0.531,0.722
	c0.095,0.015,0.176,0.128,0.263,0.195c-0.074,0.088-0.13,0.226-0.224,0.259c-0.653,0.23-1.313,0.441-1.973,0.653
	c-0.226,0.073-0.295-0.049-0.292-0.252c0.002-0.234,0-0.469,0-0.704l-0.125-0.046c-0.158,0.114-0.32,0.224-0.472,0.345
	c-0.591,0.47-1.243,0.742-2.007,0.57c-0.8-0.18-1.285-0.831-1.311-1.795c-0.027-0.98-0.009-1.961-0.015-2.942
	c-0.001-0.202-0.02-0.406-0.039-0.609c-0.033-0.337-0.197-0.555-0.55-0.609c-0.105-0.017-0.227-0.043-0.302-0.108
	c-0.069-0.062-0.118-0.184-0.112-0.275l0.203-0.14c0.842-0.011,1.684-0.007,2.565-0.007c0.009,0.177,0.023,0.32,0.023,0.465
	c0.002,1.158-0.002,2.316,0.004,3.475c0.001,0.242,0.027,0.488,0.066,0.729c0.086,0.532,0.393,0.854,0.814,0.882
	c0.435,0.028,1.027-0.409,1.135-0.845c0.025-0.104,0.038-0.216,0.039-0.323c0.002-0.98,0.007-1.961,0-2.942
	c-0.005-0.637-0.109-0.751-0.713-0.964c-0.111-0.04-0.185-0.187-0.275-0.284c0.111-0.065,0.222-0.185,0.335-0.186
	C89.77,122.946,90.558,122.954,91.422,122.954z"/>
<path style="&st70;" d="M74.503,129.582c-1.308-0.027-2.492-0.275-3.4-1.187c-1.284-1.288-1.712-2.858-1.229-4.613
	c0.498-1.812,1.771-2.843,3.565-3.27c1.002-0.237,1.998-0.168,2.986,0.093c0.316,0.083,0.531,0.228,0.547,0.603
	c0.015,0.351,0.101,0.699,0.127,1.051c0.007,0.097-0.064,0.262-0.138,0.287l-0.314-0.104c-0.123-0.122-0.219-0.278-0.302-0.433
	c-0.828-1.53-2.441-1.338-3.401-0.295c-0.555,0.603-0.819,1.341-0.944,2.132c-0.203,1.291-0.103,2.55,0.507,3.731
	c0.356,0.69,0.875,1.227,1.653,1.415c0.772,0.188,1.439-0.058,1.925-0.674c0.266-0.336,0.427-0.753,0.663-1.116
	c0.074-0.114,0.239-0.169,0.361-0.25c0.055,0.126,0.129,0.248,0.157,0.38c0.025,0.115,0,0.243-0.004,0.365
	c-0.036,1.082-0.191,1.299-1.219,1.644c-0.256,0.086-0.522,0.154-0.79,0.194C74.985,129.575,74.71,129.57,74.503,129.582z"/>
<path style="&st70;" d="M45.589,124.763c0.036,1.326,0.219,2.445,0.981,3.381c1.064,1.307,2.637,1.193,3.503-0.248
	c0.146-0.244,0.246-0.518,0.397-0.758c0.059-0.094,0.2-0.168,0.312-0.181c0.047-0.006,0.163,0.173,0.164,0.269
	c0.005,0.395,0.027,0.8-0.057,1.179c-0.049,0.22-0.248,0.458-0.445,0.583c-1.119,0.711-2.354,0.71-3.59,0.452
	c-2.059-0.431-3.386-2.028-3.471-4.268c-0.069-1.825,0.895-3.632,2.943-4.415c1.251-0.479,2.52-0.496,3.806-0.146
	c0.334,0.09,0.508,0.27,0.538,0.613c0.029,0.339,0.093,0.676,0.114,1.014c0.007,0.104-0.065,0.295-0.119,0.302
	c-0.111,0.015-0.274-0.035-0.347-0.118c-0.16-0.182-0.277-0.401-0.413-0.605c-0.648-0.971-1.708-1.204-2.698-0.579
	c-0.908,0.572-1.302,1.471-1.498,2.474C45.633,124.108,45.616,124.52,45.589,124.763z"/>
<path style="&st70;" d="M81.108,129.481c-1.967,0-3.38-1.38-3.389-3.31c-0.008-1.879,1.552-3.382,3.512-3.383
	c1.919-0.001,3.395,1.425,3.391,3.279C84.62,128.005,83.1,129.48,81.108,129.481z M79.607,125.779
	c0.1,1.042,0.387,2.134,0.801,2.708c0.561,0.779,1.466,0.747,1.839-0.126c0.24-0.562,0.377-1.197,0.412-1.808
	c0.053-0.928-0.073-1.856-0.61-2.659c-0.618-0.924-1.532-0.878-1.977,0.133C79.832,124.574,79.756,125.193,79.607,125.779z"/>
<path style="&st70;" d="M69.605,116.658c-1.978-0.003-3.367-1.397-3.359-3.372c0.007-1.869,1.551-3.341,3.501-3.337
	c1.922,0.004,3.381,1.427,3.374,3.291C73.114,115.178,71.588,116.66,69.605,116.658z M71.289,113.554l-0.111-0.03
	c-0.027-0.906-0.133-1.797-0.683-2.558c-0.573-0.794-1.472-0.749-1.879,0.141c-0.713,1.562-0.54,3.114,0.329,4.558
	c0.479,0.796,1.435,0.721,1.802-0.131C71.015,114.911,71.114,114.216,71.289,113.554z"/>
<path style="&st70;" d="M110.657,116.658c-1.956,0.012-3.362-1.372-3.373-3.319c-0.01-1.889,1.506-3.379,3.448-3.389
	c1.922-0.01,3.416,1.384,3.425,3.196C114.168,115.153,112.68,116.646,110.657,116.658z M112.236,113.86
	c-0.04-1.135-0.135-1.956-0.57-2.693c-0.25-0.424-0.572-0.788-1.124-0.745c-0.528,0.041-0.812,0.414-0.982,0.866
	c-0.553,1.465-0.385,2.884,0.329,4.249c0.219,0.418,0.566,0.698,1.088,0.643c0.504-0.054,0.779-0.399,0.91-0.826
	C112.063,114.774,112.166,114.172,112.236,113.86z"/>
<path style="&st70;" d="M118.434,114.127c0.339-0.955,0.691-1.905,1.009-2.866c0.094-0.286-0.082-0.497-0.369-0.586
	c-0.117-0.036-0.253-0.027-0.355-0.085l-0.187-0.249l0.226-0.216c0.763-0.017,1.526-0.017,2.289-0.001
	c0.093,0.001,0.183,0.121,0.274,0.186c-0.076,0.103-0.146,0.287-0.228,0.292c-0.692,0.04-0.85,0.57-1.06,1.078
	c-0.626,1.521-1.266,3.037-1.9,4.556c-0.099,0.237-0.225,0.425-0.529,0.424c-0.298-0.001-0.382-0.196-0.473-0.421
	c-0.667-1.637-1.345-3.27-2.009-4.908c-0.153-0.375-0.353-0.663-0.789-0.737c-0.09-0.015-0.158-0.168-0.236-0.256
	c0.094-0.074,0.187-0.211,0.281-0.212c1.09-0.016,2.18-0.016,3.271,0c0.093,0.001,0.184,0.141,0.276,0.217
	c-0.084,0.087-0.152,0.222-0.253,0.254c-0.658,0.214-0.662,0.211-0.415,0.875c0.28,0.752,0.559,1.504,0.841,2.254
	c0.051,0.135,0.12,0.263,0.181,0.395L118.434,114.127z"/>
<path style="&st70;" d="M40.896,111.057c0.101-0.157,0.182-0.333,0.307-0.468c0.333-0.355,0.718-0.628,1.233-0.637
	c0.483-0.009,0.927,0.315,1.043,0.756c0.138,0.525-0.101,1.098-0.555,1.329c-0.439,0.226-0.83,0.106-1.227-0.323
	c-0.143-0.154-0.354-0.246-0.534-0.366c-0.125,0.212-0.35,0.419-0.36,0.636c-0.055,1.154-0.06,2.312-0.077,3.467
	c-0.005,0.349,0.19,0.516,0.525,0.547c0.106,0.011,0.235,0.009,0.31,0.068c0.082,0.063,0.156,0.193,0.153,0.292l-0.222,0.187
	c-1.103,0.013-2.206,0.014-3.308,0l-0.221-0.21c0.042-0.119,0.135-0.276,0.242-0.309c0.685-0.21,0.713-0.221,0.72-0.934
	c0.009-0.926,0.005-1.852,0.001-2.778c-0.002-0.542-0.095-0.639-0.631-0.769c-0.097-0.023-0.175-0.127-0.262-0.193
	c0.078-0.097,0.14-0.251,0.238-0.279c0.758-0.222,1.447-0.542,1.972-1.164c0.067-0.079,0.255-0.109,0.364-0.079
	c0.062,0.018,0.101,0.203,0.108,0.315c0.015,0.264,0.005,0.529,0.005,0.794L40.896,111.057z"/>
<path style="&st70;" d="M106.07,128.035c0.173,0.31,0.003,0.511-0.192,0.678c-0.968,0.826-2.082,0.966-3.259,0.601
	c-1.175-0.363-1.847-1.214-2.089-2.397c-0.647-3.16,2.67-4.657,4.699-3.967c0.85,0.288,1.121,1.222,0.553,1.922
	c-0.21,0.259-0.457,0.175-0.619-0.042c-0.194-0.258-0.34-0.554-0.49-0.842c-0.433-0.834-0.97-0.918-1.626-0.244
	c-1.141,1.173-0.8,3.729,0.618,4.54c0.668,0.382,1.348,0.378,2.006-0.055c0.091-0.06,0.183-0.117,0.277-0.172L106.07,128.035z"/>
<path style="&st70;" d="M61.874,110.608c0.118-0.108,0.217-0.257,0.355-0.32c0.797-0.367,1.397-0.927,1.792-1.715
	c0.068-0.136,0.247-0.216,0.374-0.321c0.06,0.156,0.158,0.31,0.17,0.469c0.026,0.353,0.015,0.708,0.007,1.062
	c-0.005,0.239,0.087,0.352,0.337,0.341c0.272-0.012,0.545,0.005,0.817-0.004c0.235-0.009,0.314,0.117,0.316,0.325
	c0.001,0.212-0.091,0.328-0.317,0.324c-0.259-0.004-0.518,0.004-0.776,0.005c-0.232,0.001-0.354,0.111-0.351,0.35
	c0.02,1.211,0.039,2.422,0.063,3.634c0.002,0.106,0.033,0.215,0.065,0.317c0.17,0.545,0.465,0.645,0.957,0.35
	c0.146-0.087,0.324-0.121,0.488-0.18c-0.062,0.192-0.077,0.422-0.194,0.568c-0.514,0.641-1.193,0.949-2.017,0.807
	c-0.679-0.116-1.117-0.77-1.138-1.688c-0.023-1.036-0.009-2.071-0.012-3.107c0-0.163-0.014-0.326-0.008-0.49
	c0.013-0.405-0.147-0.618-0.582-0.568c-0.089,0.011-0.183-0.026-0.275-0.042L61.874,110.608z"/>
<path style="&st70;" d="M54.27,125.69c0,0.844,0.013,1.688-0.006,2.531c-0.009,0.391,0.146,0.587,0.528,0.613l0.04,0.006
	c0.143,0.108,0.285,0.218,0.427,0.327c-0.163,0.077-0.325,0.216-0.491,0.221c-0.761,0.021-1.523,0.004-2.285,0.003
	c-0.218-0.001-0.44,0.032-0.651-0.003c-0.133-0.022-0.25-0.144-0.373-0.222c0.103-0.104,0.188-0.271,0.311-0.305
	c0.638-0.179,0.653-0.167,0.662-0.808c0.014-0.979,0.018-1.96,0.012-2.939c-0.003-0.534-0.082-0.603-0.618-0.73
	c-0.104-0.025-0.189-0.122-0.284-0.187c0.08-0.097,0.142-0.252,0.241-0.28c0.773-0.223,1.468-0.562,2.006-1.186l0.324-0.077
	c0.088,0.063,0.147,0.222,0.149,0.341c0.012,0.898,0.006,1.796,0.006,2.694H54.27z"/>
<path style="&st70;" d="M46.416,112.56c0,0.965,0.009,1.929-0.004,2.895c-0.005,0.369,0.184,0.512,0.514,0.542l0.199,0.025
	c0.105,0.086,0.19,0.195,0.283,0.295c-0.107,0.08-0.213,0.227-0.322,0.229c-0.734,0.018-1.469,0.004-2.203,0.004
	c-0.313-0.001-0.628,0.025-0.938-0.001c-0.118-0.011-0.226-0.137-0.338-0.21c0.098-0.108,0.178-0.28,0.298-0.315
	c0.653-0.191,0.672-0.193,0.678-0.879c0.008-0.953,0.017-1.905,0.008-2.857c-0.005-0.538-0.097-0.617-0.61-0.741
	c-0.108-0.025-0.195-0.143-0.292-0.218c0.088-0.091,0.161-0.235,0.266-0.264c0.766-0.209,1.442-0.552,1.971-1.163l0.318-0.089
	c0.092,0.092,0.163,0.247,0.166,0.379C46.423,110.98,46.416,111.771,46.416,112.56z"/>
<path style="&st70;" d="M77.492,72.789c0.202-0.479,0.364-0.979,0.618-1.429c0.212-0.376,0.595-0.375,0.879-0.047
	c0.383,0.442,0.589,0.974,0.64,1.551c0.041,0.462-0.546,1.007-1.039,1.007c-0.489,0-1.013-0.547-0.998-1.041L77.492,72.789z"/>
<path style="&st70;" d="M45.472,109.339c-0.608,0.013-1.056-0.449-1.063-1.096c-0.007-0.653,0.448-1.132,1.081-1.133
	c0.593-0.002,1.062,0.454,1.082,1.052C46.594,108.809,46.11,109.326,45.472,109.339z"/>
<path style="&st70;" d="M109.569,121.042c-0.006,0.645-0.473,1.133-1.089,1.139c-0.612,0.007-1.086-0.493-1.083-1.142
	c0.002-0.598,0.496-1.086,1.098-1.088C109.12,119.95,109.576,120.412,109.569,121.042z"/>
<path style="&st70;" d="M52.263,121.065c-0.004-0.634,0.479-1.125,1.098-1.115c0.6,0.009,1.059,0.465,1.07,1.062
	c0.012,0.637-0.502,1.175-1.115,1.167C52.703,122.172,52.267,121.711,52.263,121.065z"/>
<path style="&st70;" d="M104.131,85.964c0.588,0.389,0.599,0.54,0.062,0.972c0.148,0.074,0.305,0.13,0.433,0.226l0.175,0.273
	c-0.032,0.1-0.167,0.229-0.266,0.235c-0.428,0.026-0.858,0.023-1.286,0.003c-0.092-0.004-0.248-0.118-0.252-0.188
	c-0.006-0.107,0.069-0.25,0.156-0.325c0.12-0.103,0.281-0.156,0.425-0.23c-0.518-0.422-0.508-0.601,0.051-0.94
	c-0.287-0.41-0.26-1.182,0.051-1.568c0.137-0.17,0.263-0.215,0.423-0.02C104.426,84.792,104.446,85.586,104.131,85.964z"/>
<path style="&st70;" d="M53.09,85.963c-0.357-0.393-0.306-1.289,0.088-1.603l0.302,0.001c0.378,0.303,0.411,1.212,0.074,1.585
	c0.573,0.443,0.583,0.621,0.05,0.972c0.177,0.099,0.359,0.186,0.521,0.301l0.096,0.23l-0.192,0.215
	c-0.468,0.02-0.938,0.02-1.406,0.003l-0.2-0.198c-0.009-0.095,0.049-0.231,0.125-0.292c0.134-0.106,0.304-0.169,0.459-0.25
	C52.498,86.542,52.51,86.325,53.09,85.963z"/>
<path style="&st70;" d="M104.065,82.526c0.319,0.282,0.615,0.543,0.909,0.803c-0.129,0.167-0.271,0.35-0.414,0.532
	c-0.364,0.463-1.012,0.449-1.358-0.025c-0.129-0.177-0.271-0.343-0.401-0.507c0.284-0.249,0.591-0.516,0.919-0.802
	c-0.207-0.205-0.338-0.475,0.021-0.769c-0.516-0.504,0.065-0.901,0.139-1.362c0.104,0.442,0.649,0.815,0.188,1.332
	C104.339,82.09,104.334,82.221,104.065,82.526z"/>
<path style="&st70;" d="M54.401,83.35c-0.115,0.139-0.256,0.291-0.375,0.458c-0.354,0.503-1.019,0.529-1.385,0.047
	c-0.141-0.184-0.286-0.365-0.4-0.511c0.136-0.141,0.295-0.282,0.426-0.446c0.322-0.4,1-0.388,1.315,0.021
	C54.103,83.074,54.256,83.202,54.401,83.35z"/>
<path style="&st70;" d="M78.948,68.731c-0.329,0.51-0.206,0.771,0.47,1.053c-0.1,0.195-0.201,0.391-0.3,0.588
	c-0.116,0.233-0.143,0.553-0.509,0.548c-0.357-0.005-0.405-0.297-0.511-0.546c-0.086-0.203-0.206-0.392-0.303-0.572
	c0.155-0.111,0.373-0.237,0.555-0.403c0.272-0.248,0.087-0.454-0.109-0.635C78.515,68.366,78.682,68.36,78.948,68.731z"/>
<path style="&st70;" d="M77.504,74.638c0.235-0.151,0.466-0.307,0.705-0.45c0.287-0.172,0.6-0.179,0.822,0.066
	c0.177,0.196,0.335,0.333,0.606,0.303c0.055-0.006,0.114,0.015,0.154,0.11c-0.484-0.033-0.642,0.27-0.872,0.528
	c-0.104,0.117-0.502,0.133-0.636,0.028C78.02,75.018,77.935,74.581,77.504,74.638z"/>
<path style="&st70;" d="M53.47,81.743c0.22,0.229,0.37,0.472,0.065,0.694c-0.099,0.072-0.345,0.067-0.444-0.007
	c-0.3-0.226-0.147-0.466,0.07-0.685c-0.489-0.5,0.046-0.87,0.156-1.303C53.426,80.877,53.976,81.248,53.47,81.743z"/>
<path style="&st70;" d="M77.985,75.893c0.686-0.51,0.686-0.51,1.204-0.017C78.709,76.574,78.626,76.575,77.985,75.893z"/>
<path style="&st70;" d="M92.944,74.632c0.102,0.244,0.194,0.401,0.228,0.569c0.02,0.1-0.029,0.236-0.094,0.321l-0.246,0.014
	c-0.071-0.081-0.139-0.217-0.12-0.313C92.748,75.042,92.845,74.872,92.944,74.632z"/>
<path style="&st70;" d="M64.239,74.642c0.091,0.209,0.189,0.363,0.221,0.53c0.021,0.112-0.03,0.254-0.092,0.357l-0.245,0.006
	c-0.065-0.099-0.124-0.24-0.105-0.351C64.048,75.017,64.146,74.861,64.239,74.642z"/>
<path style="&st70;" d="M78.61,67.347c0.104,0.284,0.207,0.448,0.209,0.613c0.001,0.105-0.146,0.212-0.227,0.318
	c-0.076-0.114-0.216-0.23-0.211-0.341C78.388,67.775,78.498,67.618,78.61,67.347z"/>
<path style="&st70;" d="M72.656,91.054c1.306,1.588,1.658,2.672-0.076,4.608C71.11,93.976,71.122,93.104,72.656,91.054z"/>
<path style="&st70;" d="M69.981,91.167c1.429,1.523,1.443,2.824,0.049,4.391C68.828,94.025,68.813,92.694,69.981,91.167z"/>
</svg>
