<?xml version="1.0" encoding="utf-8"?>
<!-- Generator: Adobe Illustrator 16.0.0, SVG Export Plug-In . SVG Version: 6.00 Build 0)  -->
<!DOCTYPE svg PUBLIC "-//W3C//DTD SVG 1.1//EN" "http://www.w3.org/Graphics/SVG/1.1/DTD/svg11.dtd">
<svg version="1.1" id="Layer_1" xmlns="http://www.w3.org/2000/svg" xmlns:xlink="http://www.w3.org/1999/xlink" x="0px" y="0px"
	 width="20px" height="20px" viewBox="0 0 20 20" enable-background="new 0 0 20 20" xml:space="preserve">
<path fill="#444444" d="M19.38,17.02l-4.737-4.029c-0.49-0.441-1.014-0.645-1.438-0.625C14.324,11.057,15,9.357,15,7.5
	C15,3.358,11.643,0,7.5,0C3.358,0,0,3.358,0,7.5C0,11.642,3.358,15,7.5,15c1.858,0,3.557-0.676,4.867-1.795
	c-0.02,0.424,0.182,0.947,0.623,1.438l4.029,4.737c0.69,0.767,1.816,0.831,2.505,0.144C20.212,18.836,20.146,17.709,19.38,17.02z
	 M7.5,12.5c-2.761,0-5-2.239-5-5s2.239-5,5-5s5,2.238,5,5S10.261,12.5,7.5,12.5z"/>
</svg>
